<svg width="26" height="25" viewBox="0 0 26 25" fill="none" xmlns="http://www.w3.org/2000/svg">
<path d="M6.96094 24.3867C7.41797 24.3867 7.75781 24.1523 8.30859 23.6367L12.5391 19.7695H20.4609C23.9531 19.7695 25.8281 17.8477 25.8281 14.4141V5.4375C25.8281 2.00391 23.9531 0.0703125 20.4609 0.0703125H5.36719C1.875 0.0703125 0 1.99219 0 5.4375V14.4141C0 17.8594 1.875 19.7695 5.36719 19.7695H5.91797V23.1797C5.91797 23.9062 6.29297 24.3867 6.96094 24.3867ZM12.9258 12.0938C12.3164 12.0938 11.9766 11.7539 11.9648 11.1328L11.8125 4.75781C11.8008 4.13672 12.2578 3.67969 12.9141 3.67969C13.5586 3.67969 14.0391 4.14844 14.0273 4.76953L13.8516 11.1328C13.8398 11.7656 13.5 12.0938 12.9258 12.0938ZM12.9258 16.0195C12.2227 16.0195 11.6133 15.4688 11.6133 14.7656C11.6133 14.0742 12.2109 13.5117 12.9258 13.5117C13.6289 13.5117 14.2266 14.0625 14.2266 14.7656C14.2266 15.4805 13.6172 16.0195 12.9258 16.0195Z" fill="#C90000"/>
</svg>
